<svg version="1.1" id="Layer_1" xmlns="http://www.w3.org/2000/svg" xmlns:xlink="http://www.w3.org/1999/xlink" x="0px" y="0px"
	 width="100%" viewBox="0 0 305 309" enable-background="new 0 0 305 309" xml:space="preserve">
<path fill="#7F00FF" opacity="1.000000" stroke="none" 
	d="
M211.000000,310.000000 
	C140.666702,310.000000 70.833397,310.000000 1.000075,310.000000 
	C1.000050,207.000076 1.000050,104.000168 1.000025,1.000185 
	C102.666534,1.000124 204.333069,1.000124 305.999695,1.000062 
	C305.999817,103.999817 305.999817,206.999634 305.999908,309.999725 
	C274.500000,310.000000 243.000000,310.000000 211.000000,310.000000 
M163.965500,180.641830 
	C168.786026,193.387436 173.555420,206.152985 178.508011,218.847076 
	C178.990921,220.084839 180.549194,221.666687 181.701126,221.746307 
	C186.442963,222.074142 191.220642,221.883484 196.833038,221.883484 
	C189.471359,202.755951 182.391678,184.361130 175.172607,165.604156 
	C182.312653,161.585785 186.943649,155.637466 189.586639,148.196075 
	C193.358109,137.577438 193.945923,126.629990 191.677078,115.689056 
	C187.837723,97.174828 177.605911,89.122124 158.679306,89.108147 
	C146.679443,89.099281 134.679581,89.106308 122.679718,89.106216 
	C118.570091,89.106186 114.460472,89.106209 110.274017,89.106209 
	C110.274017,133.632248 110.274017,177.542557 110.274017,221.546661 
	C115.614906,221.546661 120.667168,221.546661 126.173935,221.546661 
	C126.173935,203.775131 126.173935,186.345596 126.173935,168.616714 
	C133.452393,168.616714 140.271362,168.616714 147.090317,168.616730 
	C159.345688,168.616745 159.345688,168.616730 163.965500,180.641830 
M128.289566,252.018661 
	C113.764359,258.076843 99.157745,258.360931 84.545769,252.433273 
	C66.700981,245.194168 54.448105,231.891800 45.555798,215.333359 
	C31.030300,188.285324 27.926535,159.406616 33.479404,129.570786 
	C37.226013,109.440117 45.411274,91.183884 59.560360,76.004227 
	C84.898743,48.820282 119.714745,47.121040 147.769028,71.437050 
	C149.677368,73.091103 152.788193,73.357780 155.339783,74.269691 
	C155.862350,73.469810 156.384918,72.669930 156.907471,71.870049 
	C154.622131,70.040596 152.219345,68.338860 150.069656,66.361900 
	C128.949799,46.939026 100.778847,42.767998 76.566757,55.825256 
	C60.480522,64.500351 49.182854,77.883102 40.934952,93.916618 
	C26.864578,121.268738 23.705414,150.300690 28.699062,180.317261 
	C32.434017,202.767883 41.260632,223.006958 56.909061,239.884171 
	C78.076927,262.714233 106.652908,268.840546 133.184097,256.158112 
	C142.081909,251.904785 149.691544,245.887573 155.630081,237.462555 
	C152.625671,237.692825 149.777969,238.405563 147.382767,239.862305 
	C141.151581,243.652069 135.119049,247.768463 128.289566,252.018661 
z"/>
<path fill="#FDFBFF" opacity="1.000000" stroke="none" 
	d="
M163.817459,180.281189 
	C159.345688,168.616730 159.345688,168.616745 147.090317,168.616730 
	C140.271362,168.616714 133.452393,168.616714 126.173935,168.616714 
	C126.173935,186.345596 126.173935,203.775131 126.173935,221.546661 
	C120.667168,221.546661 115.614906,221.546661 110.274017,221.546661 
	C110.274017,177.542557 110.274017,133.632248 110.274017,89.106209 
	C114.460472,89.106209 118.570091,89.106186 122.679718,89.106216 
	C134.679581,89.106308 146.679443,89.099281 158.679306,89.108147 
	C177.605911,89.122124 187.837723,97.174828 191.677078,115.689056 
	C193.945923,126.629990 193.358109,137.577438 189.586639,148.196075 
	C186.943649,155.637466 182.312653,161.585785 175.172607,165.604156 
	C182.391678,184.361130 189.471359,202.755951 196.833038,221.883484 
	C191.220642,221.883484 186.442963,222.074142 181.701126,221.746307 
	C180.549194,221.666687 178.990921,220.084839 178.508011,218.847076 
	C173.555420,206.152985 168.786026,193.387436 163.817459,180.281189 
M126.109604,149.322342 
	C127.129150,149.672836 128.146576,150.320572 129.168579,150.327850 
	C139.488480,150.401550 149.810989,150.489746 160.128998,150.330307 
	C168.110107,150.207001 173.026520,146.658279 175.113586,138.940094 
	C176.308380,134.521698 176.942383,129.745972 176.708038,125.188751 
	C176.185074,115.019714 171.156174,108.292953 163.346497,107.959473 
	C151.094238,107.436295 138.803192,107.820633 126.021088,107.820633 
	C126.021088,121.463440 126.021088,134.904861 126.109604,149.322342 
z"/>
<path fill="#F8F1FF" opacity="1.000000" stroke="none" 
	d="
M128.648407,251.886597 
	C135.119049,247.768463 141.151581,243.652069 147.382767,239.862305 
	C149.777969,238.405563 152.625671,237.692825 155.630081,237.462555 
	C149.691544,245.887573 142.081909,251.904785 133.184097,256.158112 
	C106.652908,268.840546 78.076927,262.714233 56.909061,239.884171 
	C41.260632,223.006958 32.434017,202.767883 28.699062,180.317261 
	C23.705414,150.300690 26.864578,121.268738 40.934952,93.916618 
	C49.182854,77.883102 60.480522,64.500351 76.566757,55.825256 
	C100.778847,42.767998 128.949799,46.939026 150.069656,66.361900 
	C152.219345,68.338860 154.622131,70.040596 156.907471,71.870049 
	C156.384918,72.669930 155.862350,73.469810 155.339783,74.269691 
	C152.788193,73.357780 149.677368,73.091103 147.769028,71.437050 
	C119.714745,47.121040 84.898743,48.820282 59.560360,76.004227 
	C45.411274,91.183884 37.226013,109.440117 33.479404,129.570786 
	C27.926535,159.406616 31.030300,188.285324 45.555798,215.333359 
	C54.448105,231.891800 66.700981,245.194168 84.545769,252.433273 
	C99.157745,258.360931 113.764359,258.076843 128.648407,251.886597 
z"/>
<path fill="#8001FF" opacity="1.000000" stroke="none" 
	d="
M126.065346,148.834305 
	C126.021088,134.904861 126.021088,121.463440 126.021088,107.820633 
	C138.803192,107.820633 151.094238,107.436295 163.346497,107.959473 
	C171.156174,108.292953 176.185074,115.019714 176.708038,125.188751 
	C176.942383,129.745972 176.308380,134.521698 175.113586,138.940094 
	C173.026520,146.658279 168.110107,150.207001 160.128998,150.330307 
	C149.810989,150.489746 139.488480,150.401550 129.168579,150.327850 
	C128.146576,150.320572 127.129150,149.672836 126.065346,148.834305 
z"/>
</svg>